<svg width="40" height="40" viewBox="0 0 40 40" fill="none" xmlns="http://www.w3.org/2000/svg">
  <defs>
    <linearGradient id="logoGradient" x1="0%" y1="0%" x2="100%" y2="100%">
      <stop offset="0%" style="stop-color:#00d4ff;stop-opacity:1" />
      <stop offset="100%" style="stop-color:#0066cc;stop-opacity:1" />
    </linearGradient>
  </defs>
  
  <!-- Background Circle -->
  <circle cx="20" cy="20" r="20" fill="url(#logoGradient)"/>
  
  <!-- Game Controller Shape -->
  <path d="M12 14h16c2 0 3.5 1.5 3.5 3.5v5c0 2-1.5 3.5-3.5 3.5h-16c-2 0-3.5-1.5-3.5-3.5v-5c0-2 1.5-3.5 3.5-3.5z" fill="white" opacity="0.9"/>
  
  <!-- D-Pad -->
  <rect x="13" y="18" width="2" height="6" rx="1" fill="#1a1a1a"/>
  <rect x="12" y="19" width="4" height="2" rx="1" fill="#1a1a1a"/>
  
  <!-- Action Buttons -->
  <circle cx="25" cy="18" r="1.5" fill="#1a1a1a"/>
  <circle cx="28" cy="18" r="1.5" fill="#1a1a1a"/>
  <circle cx="25" cy="21" r="1.5" fill="#1a1a1a"/>
  <circle cx="28" cy="21" r="1.5" fill="#1a1a1a"/>
  
  <!-- Center Line -->
  <line x1="20" y1="16" x2="20" y2="24" stroke="#1a1a1a" stroke-width="1" opacity="0.3"/>
</svg>